<?xml version="1.0" encoding="UTF-8"?>
<svg xmlns="http://www.w3.org/2000/svg" xmlns:xlink="http://www.w3.org/1999/xlink" width="16pt" height="16pt" viewBox="0 0 16 16" version="1.1">
<g id="surface1">
<path style=" stroke:none;fill-rule:nonzero;fill:rgb(95.686275%,94.901961%,90.980392%);fill-opacity:1;" d="M 14.691406 3.605469 L 14.691406 3.5 C 14.648438 2.382812 14.238281 1.59375 13.394531 1.011719 C 12.699219 0.542969 11.71875 0.285156 10.613281 0.285156 L 10.59375 0.285156 C 9.714844 0.285156 8.792969 0.460938 8.132812 0.761719 L 8.007812 0.816406 L 7.882812 0.761719 C 7.371094 0.527344 6.664062 0.363281 5.941406 0.304688 C 5.933594 0.304688 5.921875 0.304688 5.914062 0.304688 L 4.695312 0.320312 C 4.6875 0.320312 4.679688 0.320312 4.667969 0.320312 C 3.859375 0.414062 3.148438 0.652344 2.613281 1.011719 C 1.773438 1.59375 1.363281 2.382812 1.320312 3.511719 L 1.320312 3.628906 C 1.320312 3.675781 1.316406 3.722656 1.316406 3.765625 C 1.332031 5.371094 1.695312 6.027344 2.117188 6.785156 L 2.183594 6.910156 C 2.667969 7.746094 3.140625 8.707031 3.125 10.484375 C 3.125 12.910156 3.570312 14.167969 3.941406 14.796875 C 4.371094 15.511719 4.585938 15.71875 5.179688 15.71875 C 5.808594 15.71875 6.082031 15.125 6.113281 14.734375 C 6.140625 14.449219 6.148438 14.117188 6.152344 13.761719 C 6.164062 12.9375 6.183594 11.910156 6.492188 10.855469 L 6.503906 10.824219 C 6.628906 10.417969 6.78125 9.914062 7.074219 9.476562 C 7.257812 9.199219 7.648438 8.90625 8.074219 8.90625 C 8.414062 8.90625 8.703125 9.09375 8.9375 9.46875 C 9.214844 9.917969 9.378906 10.402344 9.519531 10.851562 C 9.832031 11.902344 9.964844 13.121094 9.878906 14.109375 C 9.828125 14.695312 9.933594 15.136719 10.191406 15.417969 C 10.453125 15.703125 10.773438 15.71875 10.835938 15.71875 C 11.378906 15.71875 11.632812 15.527344 12.070312 14.792969 C 12.445312 14.167969 12.886719 12.910156 12.886719 10.484375 C 12.875 8.707031 13.34375 7.742188 13.832031 6.902344 L 13.894531 6.785156 C 14.316406 6.027344 14.679688 5.371094 14.695312 3.765625 C 14.695312 3.710938 14.695312 3.660156 14.691406 3.605469 Z M 14.691406 3.605469 "/>
<path style=" stroke:none;fill-rule:nonzero;fill:rgb(23.137255%,41.568627%,45.882353%);fill-opacity:1;" d="M 14.824219 3.609375 L 14.824219 3.496094 C 14.78125 2.332031 14.351562 1.503906 13.46875 0.894531 C 12.75 0.410156 11.738281 0.144531 10.609375 0.144531 L 10.589844 0.144531 C 9.691406 0.144531 8.746094 0.328125 8.070312 0.632812 L 8 0.664062 L 7.933594 0.636719 C 7.398438 0.394531 6.695312 0.226562 5.945312 0.167969 C 5.933594 0.164062 5.921875 0.164062 5.90625 0.164062 L 4.6875 0.179688 C 4.675781 0.179688 4.660156 0.183594 4.648438 0.183594 C 3.8125 0.277344 3.082031 0.523438 2.53125 0.898438 C 1.648438 1.503906 1.21875 2.332031 1.175781 3.507812 L 1.175781 3.625 C 1.171875 3.671875 1.171875 3.71875 1.171875 3.769531 C 1.1875 5.40625 1.558594 6.074219 1.988281 6.851562 L 2.058594 6.976562 C 2.53125 7.796875 2.992188 8.742188 2.980469 10.484375 C 2.980469 12.941406 3.433594 14.222656 3.816406 14.867188 C 4.238281 15.570312 4.480469 15.855469 5.171875 15.855469 C 5.820312 15.855469 6.203125 15.292969 6.246094 14.75 C 6.273438 14.457031 6.277344 14.121094 6.285156 13.765625 C 6.296875 12.949219 6.3125 11.929688 6.621094 10.894531 L 6.628906 10.867188 C 6.75 10.472656 6.902344 9.976562 7.183594 9.550781 C 7.351562 9.300781 7.707031 9.042969 8.070312 9.042969 C 8.355469 9.042969 8.605469 9.210938 8.8125 9.542969 C 9.082031 9.976562 9.246094 10.449219 9.378906 10.894531 C 9.6875 11.925781 9.820312 13.125 9.734375 14.097656 C 9.679688 14.722656 9.796875 15.199219 10.082031 15.511719 C 10.375 15.832031 10.726562 15.855469 10.828125 15.855469 C 11.484375 15.855469 11.765625 15.5625 12.183594 14.867188 C 12.566406 14.222656 13.019531 12.941406 13.019531 10.480469 C 13.007812 8.742188 13.46875 7.796875 13.945312 6.96875 L 14.011719 6.855469 C 14.441406 6.078125 14.8125 5.40625 14.828125 3.765625 C 14.828125 3.714844 14.828125 3.664062 14.824219 3.609375 Z M 13.285156 6.449219 L 13.222656 6.5625 C 12.714844 7.441406 12.175781 8.539062 12.1875 10.484375 C 12.191406 12.875 11.738281 13.988281 11.46875 14.4375 C 11.121094 15.019531 11.046875 15.023438 10.832031 15.023438 C 10.820312 15.023438 10.75 15.015625 10.691406 14.945312 C 10.625 14.867188 10.519531 14.664062 10.5625 14.167969 C 10.65625 13.082031 10.515625 11.800781 10.175781 10.652344 C 10.023438 10.15625 9.839844 9.621094 9.519531 9.105469 C 9.160156 8.527344 8.648438 8.210938 8.070312 8.210938 C 7.382812 8.210938 6.78125 8.65625 6.488281 9.09375 C 6.140625 9.617188 5.972656 10.175781 5.832031 10.625 L 5.824219 10.65625 C 5.484375 11.804688 5.46875 12.886719 5.453125 13.753906 C 5.449219 14.105469 5.441406 14.410156 5.417969 14.675781 C 5.417969 14.679688 5.382812 15.023438 5.171875 15.023438 C 4.914062 15.023438 4.882812 15.023438 4.53125 14.441406 C 4.261719 13.988281 3.8125 12.871094 3.8125 10.488281 C 3.828125 8.539062 3.285156 7.441406 2.78125 6.570312 L 2.714844 6.449219 C 2.308594 5.714844 2.015625 5.1875 2.003906 3.765625 C 2.003906 3.722656 2.003906 3.683594 2.007812 3.636719 L 2.007812 3.527344 C 2.039062 2.621094 2.339844 2.039062 3 1.585938 C 3.433594 1.289062 4.027344 1.09375 4.722656 1.011719 L 5.898438 0.996094 C 6.539062 1.050781 7.152344 1.195312 7.59375 1.394531 L 7.820312 1.496094 L 9.441406 2.355469 C 9.503906 2.386719 9.570312 2.402344 9.632812 2.402344 C 9.785156 2.402344 9.925781 2.324219 10.003906 2.183594 C 10.109375 1.980469 10.03125 1.726562 9.828125 1.621094 L 9.007812 1.183594 C 9.496094 1.054688 10.058594 0.976562 10.605469 0.976562 L 10.609375 0.976562 C 10.609375 0.976562 10.625 0.976562 10.625 0.976562 C 11.5625 0.976562 12.429688 1.199219 13 1.582031 C 13.660156 2.039062 13.960938 2.621094 13.992188 3.515625 L 13.996094 3.625 C 13.996094 3.671875 13.996094 3.71875 13.996094 3.761719 C 13.984375 5.1875 13.691406 5.71875 13.285156 6.449219 Z M 13.285156 6.449219 "/>
<path style=" stroke:none;fill-rule:nonzero;fill:rgb(100%,100%,100%);fill-opacity:1;" d="M 3.957031 5.992188 C 3.785156 5.992188 3.621094 5.894531 3.542969 5.730469 C 3.058594 4.742188 3.050781 2.929688 4.289062 2.09375 C 4.5 1.953125 4.785156 2.007812 4.929688 2.21875 C 5.070312 2.429688 5.015625 2.71875 4.804688 2.859375 C 4.054688 3.367188 4.046875 4.660156 4.371094 5.328125 C 4.484375 5.554688 4.386719 5.832031 4.160156 5.945312 C 4.09375 5.976562 4.027344 5.992188 3.957031 5.992188 Z M 3.957031 5.992188 "/>
</g>
</svg>
