<?xml version="1.0" ?><!DOCTYPE svg  PUBLIC '-//W3C//DTD SVG 1.1//EN'  'http://www.w3.org/Graphics/SVG/1.1/DTD/svg11.dtd'><svg enable-background="new 0 0 91 91" height="91px" id="Layer_1" version="1.1" viewBox="0 0 91 91" width="91px" xml:space="preserve" xmlns="http://www.w3.org/2000/svg" xmlns:xlink="http://www.w3.org/1999/xlink"><g><g><path d="M83.564,20.504l-0.008-0.587c-0.238-6.361-2.576-10.86-7.37-14.17c-3.955-2.666-9.538-4.135-15.813-4.135    H60.26c-5.006,0-10.247,1.016-14.002,2.717l-0.723,0.318l-0.704-0.313C41.919,3.008,37.894,2.06,33.79,1.731    c-0.046-0.004-0.099-0.007-0.146-0.005l-6.933,0.092c-0.052,0.001-0.105,0.004-0.157,0.011c-4.613,0.523-8.65,1.88-11.684,3.933    c-4.782,3.298-7.122,7.796-7.359,14.206l-0.008,0.67c-0.003,0.271-0.007,0.531-0.007,0.789c0.075,9.11,2.146,12.843,4.542,17.163    l0.39,0.707c2.75,4.752,5.427,10.234,5.354,20.333c-0.011,13.798,2.515,20.946,4.639,24.523c2.44,4.059,3.66,5.237,7.035,5.237    c3.578,0,5.139-3.359,5.312-5.584c0.159-1.625,0.191-3.521,0.223-5.529c0.075-4.697,0.168-10.543,1.941-16.534l0.056-0.179    c0.708-2.302,1.586-5.167,3.244-7.667c1.038-1.566,3.261-3.25,5.693-3.25c1.93,0,3.578,1.079,4.9,3.21    c1.582,2.551,2.528,5.297,3.314,7.872c1.775,5.969,2.545,12.892,2.052,18.515c-0.289,3.339,0.306,5.845,1.778,7.45    c1.479,1.614,3.303,1.696,3.654,1.696h0.003c3.084,0,4.527-1.076,7.027-5.246c2.123-3.563,4.648-10.711,4.641-24.523    c-0.07-10.091,2.608-15.577,5.373-20.359l0.366-0.661c2.396-4.321,4.462-8.054,4.546-17.188    C83.576,21.116,83.572,20.816,83.564,20.504z" fill="#F4F2E8"/><path d="M84.321,20.532l-0.011-0.646c-0.25-6.63-2.695-11.327-7.717-14.794c-4.086-2.753-9.824-4.27-16.252-4.27    h-0.117c-5.113,0-10.475,1.044-14.324,2.785L45.5,3.785l-0.378-0.167c-3.036-1.383-7.051-2.332-11.304-2.672    c-0.071-0.006-0.147-0.009-0.219-0.007L26.666,1.03c-0.08,0.001-0.157,0.005-0.236,0.014c-4.739,0.537-8.896,1.939-12.042,4.068    c-5.005,3.45-7.452,8.146-7.7,14.847l-0.009,0.651c-0.004,0.28-0.008,0.548-0.008,0.82c0.08,9.313,2.194,13.125,4.642,17.541    l0.398,0.718c2.693,4.656,5.317,10.03,5.247,19.938c-0.012,13.978,2.574,21.266,4.75,24.929c2.402,3.994,3.771,5.621,7.711,5.621    c3.679,0,5.855-3.19,6.098-6.297c0.161-1.655,0.192-3.563,0.224-5.584c0.075-4.651,0.167-10.438,1.91-16.324l0.048-0.157    c0.692-2.259,1.553-5.071,3.153-7.484c0.954-1.439,2.991-2.897,5.037-2.897c1.64,0,3.063,0.956,4.231,2.836    c1.536,2.481,2.463,5.166,3.228,7.684c1.748,5.878,2.506,12.691,2.024,18.223c-0.313,3.567,0.354,6.275,1.979,8.051    c1.66,1.81,3.662,1.951,4.236,1.951h0.003c3.726,0,5.321-1.657,7.704-5.63c2.172-3.651,4.758-10.938,4.75-24.934    c-0.07-9.889,2.557-15.269,5.277-19.973l0.364-0.662c2.447-4.414,4.559-8.226,4.643-17.569    C84.33,21.125,84.326,20.833,84.321,20.532z M75.555,36.69l-0.346,0.628c-2.891,4.997-5.967,11.254-5.888,22.314    c0.007,13.586-2.559,19.927-4.083,22.491c-1.987,3.311-2.406,3.327-3.628,3.327c-0.074-0.006-0.463-0.057-0.806-0.455    c-0.376-0.435-0.971-1.588-0.723-4.408c0.537-6.185-0.266-13.467-2.208-19.994c-0.862-2.839-1.912-5.87-3.738-8.813    c-2.029-3.271-4.958-5.072-8.246-5.072c-3.906,0-7.323,2.519-8.978,5.013c-1.977,2.984-2.949,6.159-3.732,8.711l-0.054,0.177    c-1.933,6.528-2.031,12.674-2.109,17.612c-0.032,2.006-0.059,3.737-0.207,5.246c-0.002,0.02-0.188,1.983-1.389,1.983    c-1.469,0-1.658,0-3.652-3.317c-1.528-2.574-4.093-8.918-4.081-22.484c0.08-11.081-2.995-17.334-5.859-22.282l-0.378-0.685    c-2.311-4.168-3.981-7.179-4.049-15.27c0-0.229,0.004-0.471,0.008-0.725l0.008-0.623c0.191-5.149,1.882-8.458,5.641-11.047    c2.475-1.675,5.858-2.802,9.793-3.262l6.702-0.088c3.627,0.301,7.126,1.121,9.636,2.265L44.475,8.5l9.217,4.891    c0.352,0.187,0.731,0.276,1.105,0.276c0.847,0,1.665-0.455,2.09-1.255c0.612-1.154,0.173-2.584-0.98-3.196L51.24,6.74    c2.764-0.749,5.977-1.189,9.089-1.189h0.001c0.001,0,0.106,0,0.108,0c5.324,0,10.251,1.263,13.494,3.447    c3.77,2.604,5.461,5.914,5.655,11.003l0.009,0.612c0.005,0.274,0.01,0.54,0.01,0.778C79.532,29.513,77.863,32.523,75.555,36.69z" fill="#3B6A75"/><path d="M22.508,34.071c-0.974,0-1.908-0.543-2.363-1.476c-2.74-5.623-2.791-15.938,4.239-20.684    c1.202-0.813,2.834-0.494,3.646,0.708c0.811,1.202,0.495,2.834-0.708,3.646c-4.269,2.882-4.306,10.234-2.457,14.03    c0.635,1.305,0.094,2.875-1.21,3.51C23.286,33.985,22.895,34.071,22.508,34.071z" fill="#FFFFFF"/></g></g></svg>